<svg id="Layer_1" data-name="Layer 1" xmlns="http://www.w3.org/2000/svg" viewBox="0 0 45.53 50"><defs><style>.cls-1{fill:none;}.cls-2{fill:#fff;}</style></defs><title>homepage</title><path class="cls-1" d="M10.51,47.12a.54.54,0,0,0,.57.57h3.3a.54.54,0,0,0,.57-.57v-.57H10.51Z"/><polygon class="cls-1" points="16.73 38.35 14.74 38.35 10.77 38.35 8.82 38.35 8.82 39.79 16.73 39.79 16.73 38.35"/><polygon class="cls-1" points="8.82 45.01 9.74 45.01 15.72 45.01 16.73 45.01 16.73 43.97 8.82 43.97 8.82 45.01"/><path class="cls-1" d="M16.25,23.91a.7.7,0,0,0,0-1.4.74.74,0,0,0-.54.22.58.58,0,0,0-.16.44v.74Z"/><polygon class="cls-1" points="12.77 25.45 11.54 25.45 11.54 36.8 13.96 36.8 13.96 25.45 12.77 25.45"/><path class="cls-1" d="M10,25.45h-.7a2.24,2.24,0,1,1,2.24-2.24v.7H14v-.7a2.09,2.09,0,0,1,.59-1.54,2.29,2.29,0,0,1,1.66-.7,2.24,2.24,0,0,1,0,4.49h-.74V36.8h1.28a8.39,8.39,0,0,1,2.72-4.5l.07-.05.11-.07A11.14,11.14,0,0,0,24,23.34a11.23,11.23,0,0,0-22.45,0,11.14,11.14,0,0,0,4.32,8.83l.11.07L6,32.3a8.58,8.58,0,0,1,2.71,4.5H10ZM4.91,28.09a.77.77,0,0,1-1-.35l-.14-.26-.17-.32,0-.06-.12-.29-.14-.34a.77.77,0,1,1,1.43-.57l.12.28L5,26.5l.13.24.17.32A.77.77,0,0,1,4.91,28.09Zm-.6-5.75a.77.77,0,0,1-.77.71H3.47a.77.77,0,0,1-.7-.84,9.81,9.81,0,0,1,9.74-8.87.77.77,0,0,1,0,1.55A8.26,8.26,0,0,0,4.31,22.34Z"/><path class="cls-1" d="M34.25,43.06a2.33,2.33,0,0,0-1.76.67,2,2,0,0,0-.67,1.62A2.75,2.75,0,0,0,32.44,47a2,2,0,0,0,1.5.72H34A2.38,2.38,0,0,0,35.72,47h0a2.25,2.25,0,0,0,0-3.23A2,2,0,0,0,34.25,43.06Z"/><path class="cls-1" d="M10,23.21a.7.7,0,1,0-.7.7H10Z"/><rect class="cls-1" x="8.82" y="41.33" width="7.91" height="1.09"/><path class="cls-2" d="M14.94,47.12a.54.54,0,0,1-.57.57h-3.3a.54.54,0,0,1-.57-.57v-.57H9v.57a2.09,2.09,0,0,0,2.11,2.11h3.3a2.09,2.09,0,0,0,2.11-2.11v-.57H14.94Z"/><path class="cls-2" d="M15.51,37.57a.77.77,0,0,1-.77.77h2v-.86a4.66,4.66,0,0,1,.06-.68H15.51Z"/><path class="cls-2" d="M10,37.57V36.8H8.76a4.54,4.54,0,0,1,.06.68v.86h1.95A.77.77,0,0,1,10,37.57Z"/><path class="cls-2" d="M14,37.57V36.8H11.54v.77a.77.77,0,0,1-.77.77h4A.77.77,0,0,1,14,37.57Z"/><rect class="cls-2" x="8.82" y="39.79" width="7.91" height="1.55"/><path class="cls-2" d="M6.79,39.79a.77.77,0,1,0,0,1.55h.48V39.79Z"/><path class="cls-2" d="M18.84,41.33a.77.77,0,1,0,0-1.55h-.57v1.55Z"/><rect class="cls-2" x="8.82" y="42.42" width="7.91" height="1.55"/><path class="cls-2" d="M18.84,44a.77.77,0,1,0,0-1.55h-.57V44Z"/><path class="cls-2" d="M6.79,42.42a.77.77,0,1,0,0,1.55h.48V42.42Z"/><path class="cls-2" d="M5.08,26.74,5,26.5l-.13-.31-.12-.28a.77.77,0,1,0-1.43.57l.14.34.12.29,0,.06.17.32.14.26a.77.77,0,0,0,1.38-.69Z"/><path class="cls-2" d="M13.28,14.11a.77.77,0,0,0-.77-.77A9.81,9.81,0,0,0,2.77,22.2a.77.77,0,0,0,.7.84h.07a.77.77,0,0,0,.77-.71,8.26,8.26,0,0,1,8.2-7.46A.77.77,0,0,0,13.28,14.11Z"/><path class="cls-2" d="M12.77,10.57A12.76,12.76,0,0,0,4.94,33.41l0,0,.09.06c.64.56,2.2,2.29,2.2,4v2.31H8.82V38.35h-.5a.77.77,0,1,1,0-1.55h.45A8.58,8.58,0,0,0,6,32.3L6,32.25l-.11-.07a11.21,11.21,0,0,1,6.91-20.06A11.29,11.29,0,0,1,24,23.34a11.14,11.14,0,0,1-4.32,8.83l-.11.07-.07.05a8.39,8.39,0,0,0-2.72,4.5h.45a.77.77,0,1,1,0,1.55h-.5v1.44h1.55V37.48c0-2,1.94-3.76,2.2-4l.09-.06,0,0a12.68,12.68,0,0,0,4.94-10.07A12.84,12.84,0,0,0,12.77,10.57ZM20.13,32.8h0Z"/><path class="cls-2" d="M9.74,45H8.82V44H7.27v1.82a.77.77,0,0,0,.77.77H9v-.77A.77.77,0,0,1,9.74,45Z"/><rect class="cls-2" x="7.27" y="41.33" width="1.55" height="1.09"/><rect class="cls-2" x="16.73" y="41.33" width="1.55" height="1.09"/><path class="cls-2" d="M16.73,45h-1a.77.77,0,0,1,.77.77v.77h1a.77.77,0,0,0,.77-.77V44H16.73Z"/><path class="cls-2" d="M10.51,45.78v.77h4.43v-.77a.77.77,0,0,1,.77-.77h-6A.77.77,0,0,1,10.51,45.78Z"/><path class="cls-2" d="M10.51,45.78a.77.77,0,1,0-1.55,0v.77h1.55Z"/><path class="cls-2" d="M15.72,45a.77.77,0,0,0-.77.77v.77h1.55v-.77A.77.77,0,0,0,15.72,45Z"/><path class="cls-2" d="M8.76,36.8H8.31a.77.77,0,1,0,0,1.55h.5v-.86A4.54,4.54,0,0,0,8.76,36.8Z"/><path class="cls-2" d="M16.73,38.35h.5a.77.77,0,1,0,0-1.55h-.45a4.66,4.66,0,0,0-.06.68Z"/><rect class="cls-2" x="7.27" y="39.79" width="1.55" height="1.55"/><rect class="cls-2" x="16.73" y="39.79" width="1.55" height="1.55"/><rect class="cls-2" x="16.73" y="42.42" width="1.55" height="1.55"/><rect class="cls-2" x="7.27" y="42.42" width="1.55" height="1.55"/><path class="cls-2" d="M15.51,24.68v.77h.74a2.24,2.24,0,0,0,0-4.49,2.29,2.29,0,0,0-1.66.7A2.09,2.09,0,0,0,14,23.21v.7h.73A.77.77,0,0,1,15.51,24.68Zm.21-1.95a.74.74,0,0,1,.54-.22.7.7,0,0,1,0,1.4h-.7v-.74A.58.58,0,0,1,15.71,22.73Z"/><path class="cls-2" d="M13.55,24.68a.77.77,0,0,1-.77.77H14V36.8h1.55V25.45h-.73a.77.77,0,0,1-.77-.77v-.77H12.77A.77.77,0,0,1,13.55,24.68Z"/><path class="cls-2" d="M15.51,37.57V36.8H14v.77a.77.77,0,0,0,1.55,0Z"/><path class="cls-2" d="M14.78,25.45h.73v-.77a.77.77,0,0,0-.77-.77H14v.77A.77.77,0,0,0,14.78,25.45Z"/><path class="cls-2" d="M10.77,23.91h.77v-.7a2.24,2.24,0,1,0-2.24,2.24H10v-.77A.77.77,0,0,1,10.77,23.91Zm-2.17-.7a.7.7,0,1,1,1.4,0v.7h-.7A.71.71,0,0,1,8.59,23.21Z"/><path class="cls-2" d="M11.54,25.45h1.23a.77.77,0,1,1,0-1.55H11.54v.77a.77.77,0,0,1-.77.77H10V36.8h1.55Z"/><path class="cls-2" d="M11.54,37.57V36.8H10v.77a.77.77,0,0,0,1.55,0Z"/><circle class="cls-2" cx="12.77" cy="24.68" r="0.77"/><path class="cls-2" d="M11.54,24.68v-.77h-.77a.77.77,0,0,0-.77.77v.77h.77A.77.77,0,0,0,11.54,24.68Z"/><path class="cls-2" d="M32,41.4l-.28.15-.2-.25a8.69,8.69,0,0,1,.67-11.62l3-3a10.91,10.91,0,0,0,3.23-7.85,10.78,10.78,0,0,0-3.22-7.61L34,10.07h2.74a.79.79,0,0,0,.71-.34l0-.06a1.24,1.24,0,0,0,.4-.76.79.79,0,0,0-.34-.71l-.06,0a1.25,1.25,0,0,0-.76-.4H31.32a1.14,1.14,0,0,0-1,1l-.09,3.88,0,1.81a1.08,1.08,0,0,0,.27.75,1.24,1.24,0,0,0,.76.4,1.09,1.09,0,0,0,.76-.27,1.25,1.25,0,0,0,.4-.76l.11-1.93.07-1.28,1.26,1.26,0,0a8.92,8.92,0,0,1,0,12.4l-3,3a11.13,11.13,0,0,0-.75,14.85l.17.2-.12.23a4.69,4.69,0,0,0,.72,5.37A4.54,4.54,0,1,0,32,41.4ZM35.72,47h0A2.38,2.38,0,0,1,34,47.7h-.11a2,2,0,0,1-1.5-.72,2.75,2.75,0,0,1-.62-1.64,2,2,0,0,1,.67-1.62,2.33,2.33,0,0,1,1.76-.67,2,2,0,0,1,1.5.72A2.25,2.25,0,0,1,35.72,47Z"/><path class="cls-2" d="M45.25,35.65l-2.1-2,2.06-1.91a1.56,1.56,0,0,0,.19-.8,1.09,1.09,0,0,0-.27-.76,1.25,1.25,0,0,0-1.52,0L41.52,32.3l-2.08-2.08a1.25,1.25,0,0,0-1.52,0,1.09,1.09,0,0,0-.27.76.79.79,0,0,0,.34.71l0,0,2.11,2-2.11,2a2.16,2.16,0,0,0-.39.81,1.06,1.06,0,0,0,.27.7,1.25,1.25,0,0,0,1.52,0l2.22-2.07,2.07,2.07a1.25,1.25,0,0,0,1.52,0A1.17,1.17,0,0,0,45.25,35.65Z"/><path class="cls-2" d="M26.07,5.74l0,0-2.11-2,2.11-2A.94.94,0,0,0,26.38,1,.93.93,0,0,0,26,.29a1.22,1.22,0,0,0-1.55,0L22.41,2.35,20.33.26a1.25,1.25,0,0,0-1.52,0,1.09,1.09,0,0,0-.27.76.79.79,0,0,0,.34.71l0,0,2.11,2-2.16,2a.79.79,0,0,0-.34.71,1.09,1.09,0,0,0,.27.76,1.25,1.25,0,0,0,1.52,0l2.22-2.07,2.07,2.07a1.25,1.25,0,0,0,1.52,0,1.09,1.09,0,0,0,.27-.76A.79.79,0,0,0,26.07,5.74Z"/></svg>