<svg id="Layer_1" data-name="Layer 1" xmlns="http://www.w3.org/2000/svg" viewBox="0 0 57.76 50"><defs><style>.cls-1{fill:#fff;}</style></defs><title>homepage</title><path class="cls-1" d="M44,29.93H38.4a1.13,1.13,0,0,0,0,2.25H44a1.13,1.13,0,0,0,0-2.25Z"/><path class="cls-1" d="M37.5,41.88H18.3a1.13,1.13,0,0,0,0,2.25H37.5a1.13,1.13,0,0,0,0-2.25Z"/><path class="cls-1" d="M9.12,41.88h-4a1.13,1.13,0,0,0,0,2.25h4a1.13,1.13,0,0,0,0-2.25Z"/><path class="cls-1" d="M57.6,17.16,55,10.65V6.89A1.11,1.11,0,0,0,54.48,5L31.68,0a1.11,1.11,0,0,0-.6,0L8.29,5a1.13,1.13,0,0,0,0,2.17l8.87,3.11v7.76c0,2.47.35,4.68,2.06,6.19H12.1a5.61,5.61,0,0,0-5.58,5.63v2.74A5.64,5.64,0,0,0,7.63,36H5.58A5.61,5.61,0,0,0,0,41.62v2.74A5.61,5.61,0,0,0,5.58,50H47.08a1.13,1.13,0,0,0,0-2.25H44.61c-1.5-3.55-1.45-6.59.14-9.49h7.37a1.13,1.13,0,0,0,0-2.25H49.73c-1.56-3.56-1.58-6.61-.06-9.5H52a1.13,1.13,0,0,0,0-2.25H43.8c1.72-1.51,2.06-3.72,2.06-6.19V10.23l6.87-2.55v3.14l-2.62,6.5a1.14,1.14,0,0,0,.11,1.05,1.11,1.11,0,0,0,.93.5h5.49a1.13,1.13,0,0,0,1-1.71ZM42.2,47.75H5.58a3.37,3.37,0,0,1-3.35-3.38V41.62a3.37,3.37,0,0,1,3.35-3.38h6.16l.37,0h.82V39.7a1.13,1.13,0,0,0,.55,1,1.11,1.11,0,0,0,1.11,0l3-2,2.88,2c1.09.2.77.19,1.11,0a1.13,1.13,0,0,0,.55-1V38.26H42.25A12.34,12.34,0,0,0,42.2,47.75ZM17.71,36.51c-.34-.2,0-.2-.36,0l-2.19,1.25v-5.3H19.9v5.3ZM47.32,36h-.15L47,36H22.14v-3.8H30a1.13,1.13,0,0,0,0-2.25H11.64a1.13,1.13,0,0,0,0,2.25h1.29V36h-1a3.36,3.36,0,0,1-3.17-3.36V29.88A3.37,3.37,0,0,1,12.1,26.5h35.1A12.44,12.44,0,0,0,47.32,36ZM31.38,2.3,49,5.73H31.38a1.13,1.13,0,0,0,0,2.25H49L31.38,12.16,12.76,6.1ZM43.63,18.06c0,3.28-1.9,6-5.15,6H24.54c-3.25,0-5.15-2.67-5.15-6V10.93l11.7,3.49a1.1,1.1,0,0,0,.6,0l11.94-3.56Zm9.18-1.44,1.08-2.69L55,16.62Z"/></svg>