<svg id="Layer_1" data-name="Layer 1" xmlns="http://www.w3.org/2000/svg" viewBox="0 0 49.76 49.75"><defs><style>.cls-1{fill:#fff;}.cls-2{fill:none;}</style></defs><title>homepage</title><path class="cls-1" d="M48.5,0H1.26A1.26,1.26,0,0,0,0,1.26V34.15a1.26,1.26,0,0,0,1.26,1.26H12.84l-.07.17L7.86,48a1.28,1.28,0,0,0,.71,1.65A1.31,1.31,0,0,0,10.21,49l2.29-5.78H37.28L39.57,49a1.32,1.32,0,0,0,1.65.71A1.18,1.18,0,0,0,41.9,49a1.32,1.32,0,0,0,0-1l-5-12.6H48.5a1.26,1.26,0,0,0,1.26-1.26V1.26A1.26,1.26,0,0,0,48.5,0Zm-35,40.65,2.07-5.23H34.19l2.07,5.23Zm33.75-7.75H2.53V16.24H5.27a1.26,1.26,0,0,0,0-2.52H2.53v-3h6.2a1.26,1.26,0,0,0,0-2.52H2.53V2.52H47.24Z"/><path class="cls-1" d="M7.22,28.74a1.38,1.38,0,0,0,1.79,0l10.93-11,5.8,5.51a1.25,1.25,0,0,0,1.77,0l12-12v2.53a1.26,1.26,0,0,0,2.52,0V8.15a1.26,1.26,0,0,0-1.26-1.26H35.14a1.26,1.26,0,0,0,0,2.52h2.54L26.59,20.55,20.78,15a1.28,1.28,0,0,0-1.77,0L7.21,26.95A1.27,1.27,0,0,0,7.22,28.74Z"/><polygon class="cls-2" points="15.73 35.67 13.86 40.4 35.89 40.4 34.02 35.67 15.73 35.67"/><path class="cls-2" d="M10.25,9.43a1.51,1.51,0,0,1-1.51,1.51h-6v2.53H5.27a1.51,1.51,0,0,1,0,3H2.78V32.64H47V2.77H2.78V7.91h6A1.51,1.51,0,0,1,10.25,9.43ZM21,14.86l5.63,5.34L37.08,9.66H35.14a1.51,1.51,0,0,1,0-3h5.59a1.51,1.51,0,0,1,1.51,1.51v5.58a1.51,1.51,0,0,1-3,0V11.8L27.68,23.37a1.52,1.52,0,0,1-2.12,0l-5.62-5.34L9.19,28.9a1.61,1.61,0,0,1-1.1.41,1.45,1.45,0,0,1-1-.39,1.52,1.52,0,0,1,0-2.14l11.8-11.88A1.53,1.53,0,0,1,21,14.86Z"/></svg>